<?xml version="1.0" standalone="no"?>
<!DOCTYPE svg PUBLIC "-//W3C//DTD SVG 20010904//EN"
 "http://www.w3.org/TR/2001/REC-SVG-20010904/DTD/svg10.dtd">
<svg version="1.0" xmlns="http://www.w3.org/2000/svg"
 width="512.000000pt" height="512.000000pt" viewBox="0 0 512.000000 512.000000"
 preserveAspectRatio="xMidYMid meet">

<g transform="translate(0.000000,512.000000) scale(0.100000,-0.100000)"
fill="#000000" stroke="none">
<path d="M2761 4873 c-25 -6 -82 -27 -126 -46 -44 -18 -118 -46 -165 -62 -109
-36 -186 -74 -259 -130 -33 -25 -64 -45 -69 -45 -19 0 -51 -55 -42 -70 5 -8 6
-19 2 -24 -3 -6 -7 -17 -8 -26 -1 -8 -7 -37 -13 -65 -7 -27 -13 -69 -14 -92
-1 -27 -7 -43 -14 -43 -7 0 -13 -4 -13 -9 0 -5 6 -11 13 -14 9 -3 7 -9 -5 -24
-10 -11 -18 -30 -18 -42 0 -29 -27 -124 -46 -159 -8 -15 -14 -38 -14 -52 0
-15 -4 -30 -9 -35 -6 -6 -19 -52 -30 -104 -12 -52 -26 -98 -32 -101 -15 -10
-18 -117 -4 -166 12 -39 8 -90 -10 -156 -16 -59 24 -23 61 56 14 31 31 56 36
56 5 0 6 4 3 10 -3 5 11 45 32 87 20 43 36 82 35 87 -2 5 4 6 13 3 8 -4 15 -1
15 6 0 7 15 18 33 26 17 8 39 20 49 28 11 10 18 11 23 3 4 -7 11 -8 18 -2 23
18 135 52 151 46 12 -4 16 0 16 16 0 11 4 19 9 15 5 -3 12 -1 16 5 3 5 0 10
-7 10 -8 0 -6 5 5 11 9 5 17 17 17 25 0 8 11 20 25 26 14 6 25 17 25 24 0 7 9
15 20 19 11 3 19 9 19 13 -3 19 2 23 16 12 8 -7 15 -8 15 -3 0 13 71 34 98 28
26 -5 30 11 5 18 -15 5 -5 4 49 -2 4 -1 5 -9 2 -18 -5 -16 -4 -16 8 -3 7 9 22
15 33 15 11 0 23 5 27 10 5 6 8 5 8 -4 0 -9 4 -10 13 -3 10 8 70 25 127 36 8
1 23 6 33 11 11 4 23 3 29 -3 7 -7 19 -7 33 -2 13 5 26 6 30 2 3 -3 16 -7 28
-7 13 0 21 -5 19 -14 -2 -10 7 -12 34 -9 29 3 38 1 42 -14 2 -10 13 -18 22
-18 10 0 22 -9 25 -21 4 -11 9 -18 12 -15 3 3 23 -4 45 -15 22 -11 47 -18 56
-14 9 3 13 3 10 -1 -17 -16 24 -34 79 -34 119 0 145 -3 150 -16 3 -8 9 -11 14
-8 9 5 49 -30 66 -59 5 -10 18 -20 29 -21 10 -2 18 -9 17 -15 -2 -6 2 -11 8
-11 6 0 9 -9 6 -20 -3 -13 -1 -18 6 -13 6 4 8 0 4 -10 -3 -9 -2 -19 4 -22 5
-4 7 -10 4 -15 -3 -4 2 -13 10 -20 8 -7 12 -16 9 -21 -5 -8 1 -18 34 -54 10
-11 10 -15 1 -15 -6 0 0 -14 14 -32 13 -18 28 -32 33 -31 5 1 16 -5 26 -13 13
-12 14 -22 7 -47 -6 -21 -5 -33 1 -35 6 -2 5 -12 -2 -25 -7 -12 -13 -29 -15
-37 -13 -66 -21 -190 -12 -190 3 0 4 -30 2 -67 -4 -76 -29 -156 -46 -150 -14
4 -29 57 -16 57 15 0 -45 78 -64 83 -10 3 -16 11 -15 18 2 7 -1 13 -7 14 -5 0
-17 4 -25 10 -8 5 -26 9 -41 10 -15 1 -34 7 -42 13 -8 7 -19 12 -23 11 -5 -1
-17 1 -27 6 -10 4 -21 5 -24 2 -3 -4 -15 -1 -27 5 -11 7 -34 11 -51 9 -16 -2
-27 0 -23 5 17 17 -54 38 -145 44 -5 0 -5 6 -1 13 6 9 5 9 -7 0 -12 -10 -18
-10 -29 0 -10 9 -11 9 -6 0 4 -7 2 -13 -3 -13 -6 0 -11 6 -12 13 0 6 -6 0 -12
-14 -7 -14 -17 -32 -23 -40 -5 -8 -10 -21 -9 -29 0 -8 -3 -18 -8 -21 -5 -3 -9
-12 -10 -20 -2 -8 -7 -21 -12 -29 -12 -20 -16 -70 -5 -70 5 0 7 -7 4 -15 -4
-10 0 -15 12 -15 16 0 17 -2 4 -10 -12 -8 -10 -10 10 -11 14 -1 29 -1 33 0 4
1 3 -8 -3 -19 -9 -17 -8 -20 9 -20 21 0 37 -17 27 -27 -4 -4 -12 -1 -18 5 -15
15 -38 16 -38 2 0 -5 7 -10 16 -10 8 0 13 -4 9 -9 -3 -5 6 -21 20 -35 14 -14
23 -26 19 -26 -4 0 10 -13 32 -29 21 -16 42 -27 46 -25 3 2 9 0 12 -5 3 -4 38
-19 78 -31 40 -13 79 -28 86 -33 15 -12 16 6 2 34 -19 34 17 22 55 -18 l35
-38 -15 31 c-9 18 -22 37 -30 44 -8 7 -15 18 -15 24 0 6 -19 11 -47 12 -26 0
-49 6 -51 12 -2 7 -12 12 -22 12 -11 0 -23 8 -29 18 -5 9 -12 16 -15 15 -17
-5 -46 11 -42 23 3 8 -1 14 -9 14 -8 0 -15 5 -15 10 0 13 17 13 26 -1 4 -6 19
-9 36 -5 20 4 27 2 22 -6 -4 -7 -3 -8 4 -4 18 11 82 -5 82 -20 0 -12 40 -20
72 -15 4 0 22 -8 40 -19 83 -49 86 -50 115 -39 25 9 26 12 10 20 -9 6 -21 8
-26 4 -5 -3 -12 -1 -16 5 -3 5 3 10 14 10 11 0 23 5 26 10 3 6 2 10 -3 10 -6
0 -12 7 -16 15 -3 8 -2 14 2 14 22 -4 24 3 4 17 -31 22 -27 37 6 21 17 -9 35
-11 47 -6 13 5 15 8 5 9 -12 0 -12 3 2 14 10 7 14 16 10 21 -4 4 3 1 16 -6 25
-15 25 -12 -1 -121 -8 -32 -13 -58 -11 -58 8 0 34 74 34 97 0 13 4 22 8 19 4
-2 9 4 9 15 1 11 21 55 44 97 131 236 258 519 244 542 -3 5 -2 10 3 10 12 0
31 67 27 92 -3 11 -2 18 1 15 10 -9 40 27 36 44 -2 11 7 19 28 25 30 8 41 33
12 26 -10 -3 -11 1 0 17 7 12 20 21 28 21 9 0 24 9 34 21 11 13 25 19 37 16
10 -3 17 -1 14 3 -12 19 -8 150 5 165 7 8 9 15 4 15 -5 0 -9 34 -9 77 0 43 -5
85 -12 97 -7 12 -20 37 -29 56 -9 19 -34 62 -56 95 -28 42 -32 52 -14 33 15
-16 30 -28 34 -28 22 2 -232 215 -283 238 -72 33 -115 56 -115 61 0 4 -20 13
-45 20 -25 7 -45 18 -45 24 0 6 -3 7 -6 4 -4 -3 -16 -1 -27 4 -11 6 -29 12
-41 14 -50 6 -180 37 -198 46 -11 6 -46 14 -77 19 -32 4 -92 24 -135 44 -59
28 -97 38 -169 46 -112 12 -245 9 -306 -7z m1467 -1023 c-7 -11 -16 -20 -20
-20 -5 0 -3 9 4 20 7 11 16 20 20 20 5 0 3 -9 -4 -20z m-784 -925 c4 -10 -1
-15 -16 -15 -17 0 -18 2 -8 15 7 8 14 15 15 15 2 0 5 -7 9 -15z"/>
<path d="M4238 4290 c15 -33 28 -56 30 -51 3 9 -45 111 -52 111 -3 0 8 -27 22
-60z"/>
<path d="M4312 4200 c0 -14 2 -19 5 -12 2 6 2 18 0 25 -3 6 -5 1 -5 -13z"/>
<path d="M4295 4145 c4 -11 9 -44 11 -74 5 -65 14 -81 14 -24 0 22 2 53 4 69
2 16 1 23 -1 15 -4 -11 -9 -8 -20 10 -10 17 -12 18 -8 4z"/>
<path d="M4291 3974 c-6 -15 -9 -29 -7 -32 3 -2 10 8 16 23 14 36 7 43 -9 9z"/>
<path d="M1801 3695 c-22 -22 -22 -45 1 -45 6 0 9 3 5 6 -9 9 21 36 33 29 14
-9 12 11 -2 23 -9 7 -20 3 -37 -13z"/>
<path d="M2428 3628 c-15 -15 -20 -17 -15 -5 4 11 1 17 -9 17 -8 0 -13 -3 -11
-7 3 -5 -14 -7 -36 -5 -42 3 -123 -28 -110 -42 4 -3 1 -6 -6 -6 -7 0 -11 -7
-8 -14 4 -11 1 -13 -11 -9 -15 6 -14 3 2 -15 11 -12 15 -22 10 -22 -5 0 -1 -5
10 -11 13 -8 15 -13 6 -19 -7 -4 -1 -7 16 -7 15 0 30 -5 32 -11 2 -6 9 -9 17
-6 7 3 16 0 20 -5 3 -6 10 -9 14 -7 4 3 8 -4 8 -15 2 -22 -15 -26 -23 -5 -6
17 -26 15 -48 -3 -9 -7 -23 -10 -32 -7 -9 4 -23 1 -30 -5 -11 -9 -14 -9 -14 0
0 7 -4 9 -10 6 -5 -3 -10 -1 -10 4 0 6 -10 11 -21 11 -19 0 -20 -2 -8 -16 7
-9 22 -20 34 -25 15 -7 13 -8 -12 -5 -18 3 -33 2 -33 -3 0 -5 32 -15 71 -22
53 -9 73 -17 76 -30 3 -10 11 -15 18 -13 7 3 16 1 20 -5 3 -6 13 -11 21 -11 9
0 34 -15 57 -34 54 -44 121 -79 125 -66 5 15 22 12 22 -4 0 -8 7 -16 15 -20 8
-3 15 -10 15 -17 0 -6 -7 -9 -14 -6 -10 4 -13 1 -9 -9 4 -12 1 -13 -22 -4 -36
14 -55 -2 -31 -25 9 -9 20 -14 25 -11 5 4 21 2 35 -4 18 -6 26 -6 26 1 0 6 5
7 10 4 6 -3 10 -18 10 -33 1 -26 1 -26 15 -8 8 11 15 15 15 8 0 -8 18 -11 57
-9 49 3 60 7 73 29 8 13 21 23 27 21 14 -5 49 17 52 32 7 38 15 54 24 48 6 -4
8 0 4 10 -6 16 4 22 27 18 5 -1 6 5 3 14 -4 8 -1 15 6 15 7 0 12 14 13 30 1
17 -3 30 -7 30 -5 0 -9 11 -9 24 0 13 -8 30 -17 37 -15 12 -16 12 -10 -3 4
-12 2 -15 -8 -12 -7 3 -16 12 -19 20 -3 8 -13 14 -22 14 -10 0 -14 5 -10 15 3
8 2 14 -2 14 -17 -3 -31 2 -53 21 -13 11 -29 23 -34 28 -6 5 -17 6 -24 4 -8
-3 -18 3 -23 12 -5 9 -18 16 -28 16 -11 0 -29 9 -39 19 -11 11 -22 17 -25 14
-3 -3 -19 0 -36 7 -22 9 -28 16 -20 25 7 8 4 11 -13 11 -17 -1 -23 5 -25 27
-2 16 -8 26 -15 24 -7 -2 -20 0 -29 5 -13 6 -24 2 -40 -14z m116 -233 c11 -8
16 -15 10 -15 -5 0 -18 7 -28 15 -11 8 -16 15 -10 15 5 0 18 -7 28 -15z m96
-165 c0 -14 -20 -22 -37 -16 -12 5 -13 9 -3 21 11 14 40 10 40 -5z m-8 -62
c-9 -9 -15 -9 -24 0 -9 9 -7 12 12 12 19 0 21 -3 12 -12z m46 -36 c-2 -8 -8
-17 -15 -19 -7 -3 -9 3 -6 18 5 19 4 20 -15 10 -11 -6 -24 -11 -29 -11 -4 1 3
7 16 14 29 16 53 10 49 -12z m72 -32 c0 -5 -5 -10 -11 -10 -5 0 -7 5 -4 10 3
6 8 10 11 10 2 0 4 -4 4 -10z"/>
<path d="M1845 3458 c-14 -15 -6 -80 9 -75 11 4 19 87 7 87 -3 -1 -11 -6 -16
-12z"/>
<path d="M1770 3422 c0 -14 -5 -20 -14 -16 -9 3 -18 -6 -25 -27 -10 -29 -8
-34 15 -55 14 -13 27 -24 29 -24 8 0 -9 47 -24 65 -15 18 -15 19 0 7 15 -11
18 -8 23 24 4 20 5 39 2 42 -3 3 -6 -4 -6 -16z"/>
<path d="M2357 3287 c-3 -8 1 -14 8 -14 7 0 11 6 8 14 -3 7 -6 13 -8 13 -2 0
-5 -6 -8 -13z"/>
<path d="M1771 3258 c-9 -25 -2 -64 9 -51 4 4 10 23 13 41 7 37 -9 44 -22 10z"/>
<path d="M2293 3259 c14 -8 22 -8 30 0 8 8 3 11 -18 11 -26 -1 -28 -2 -12 -11z"/>
<path d="M2400 3238 c1 -20 26 -62 32 -52 8 16 3 30 -14 48 -13 12 -18 13 -18
4z"/>
<path d="M2446 3193 c-4 -9 -1 -21 5 -27 9 -8 10 -8 5 1 -9 16 5 22 29 12 16
-6 17 -8 3 -8 -9 -1 -20 -10 -23 -22 -7 -20 -32 -21 -27 0 2 11 -10 15 -34 12
-7 -1 -14 5 -18 14 -6 18 -42 20 -52 3 -4 -7 -3 -8 5 -4 6 4 14 0 17 -8 3 -9
12 -16 18 -16 7 0 18 -6 25 -12 6 -7 17 -13 24 -13 7 -1 11 -6 10 -13 -2 -6 4
-9 12 -6 8 4 15 1 15 -6 0 -6 5 -8 11 -4 8 5 8 8 0 14 -17 10 -4 35 25 50 26
15 24 20 -18 38 -22 9 -27 8 -32 -5z"/>
<path d="M2330 2799 c0 -5 -5 -7 -12 -3 -7 4 -8 3 -4 -5 6 -9 11 -9 22 0 17
14 18 19 4 19 -5 0 -10 -5 -10 -11z"/>
<path d="M3640 2790 c0 -14 28 -19 33 -6 3 6 -4 13 -14 13 -10 1 -19 -2 -19
-7z"/>
<path d="M2030 2760 c0 -5 7 -10 16 -10 8 0 13 -4 10 -9 -3 -5 3 -11 14 -14
18 -5 18 -4 3 19 -15 24 -43 33 -43 14z"/>
<path d="M2235 2760 c-4 -6 -10 -8 -14 -6 -4 3 -25 -6 -47 -19 -21 -14 -34
-25 -27 -25 6 0 14 4 17 9 3 5 16 7 29 4 18 -4 19 -3 7 6 -13 10 -13 11 0 12
8 1 22 1 31 0 9 -1 19 5 22 14 7 17 -8 21 -18 5z"/>
<path d="M2495 2694 c8 -16 15 -36 15 -45 0 -9 7 -22 15 -29 8 -7 12 -16 9
-21 -3 -5 2 -9 10 -9 9 0 16 -7 16 -16 0 -11 6 -13 19 -9 11 3 26 -1 35 -10 9
-9 21 -13 28 -9 9 6 9 3 -1 -9 -8 -10 -9 -17 -3 -17 6 0 13 4 17 10 9 14 32 1
38 -21 4 -16 1 -18 -19 -15 -27 5 -33 -8 -8 -18 24 -9 -3 -38 -28 -30 -17 5
-18 3 -9 -15 6 -11 21 -26 34 -32 12 -7 24 -15 27 -18 3 -3 21 -12 40 -19 30
-10 37 -10 46 3 6 8 14 12 17 8 4 -3 7 -1 7 5 0 7 9 12 21 12 11 0 27 7 36 15
12 13 18 13 30 4 11 -10 22 -10 46 -1 18 6 42 10 53 8 14 -3 34 7 55 26 31 29
32 32 14 39 -37 14 -87 9 -122 -12 -20 -12 -44 -19 -58 -17 -15 3 -22 1 -18
-5 4 -6 -4 -7 -23 -3 -32 8 -93 51 -101 71 -2 8 -11 11 -19 8 -9 -3 -14 2 -14
17 0 11 5 18 10 15 21 -13 9 12 -17 37 -17 16 -49 30 -81 37 -55 11 -96 44
-87 69 2 6 0 12 -4 12 -5 0 -16 3 -25 6 -14 6 -14 3 -1 -22z"/>
<path d="M3180 2576 c0 -18 55 -144 108 -246 21 -41 42 -88 47 -105 l8 -30 7
25 c3 14 2 28 -3 31 -5 4 1 10 13 14 18 6 20 9 9 16 -8 5 -10 9 -6 9 8 0 -2
14 -37 53 -11 11 -20 30 -22 41 -1 12 -7 20 -13 18 -8 -2 -10 5 -6 18 5 15 3
18 -9 14 -16 -6 -21 5 -17 35 2 8 -2 10 -10 5 -8 -5 -11 -2 -7 8 7 18 -25 71
-37 61 -4 -5 -6 -1 -3 7 3 8 -1 21 -8 28 -12 10 -14 10 -14 -2z"/>
<path d="M2162 2529 c-13 -5 -29 -6 -35 -2 -6 4 -8 0 -4 -10 3 -9 2 -19 -3
-22 -6 -4 -6 -15 2 -28 6 -12 11 -24 10 -27 -3 -8 22 -7 41 2 12 6 17 5 17 -7
0 -9 4 -13 10 -10 5 3 12 -7 16 -22 4 -15 15 -39 26 -52 10 -13 18 -30 18 -37
0 -8 7 -14 16 -14 8 0 12 -4 9 -10 -3 -5 -1 -10 4 -10 6 0 11 5 11 11 0 6 7 3
16 -6 9 -9 22 -15 28 -13 14 5 56 -38 47 -48 -3 -4 6 -4 22 0 17 4 27 2 27 -4
0 -6 -4 -8 -10 -5 -5 3 -10 1 -10 -4 0 -14 17 -14 25 0 4 5 0 18 -9 28 -18 20
-21 53 -5 84 9 19 8 20 -3 6 -7 -9 -23 -21 -34 -27 -18 -9 -25 -8 -38 7 -9 9
-16 25 -16 35 0 9 -4 15 -9 12 -12 -8 -39 16 -43 38 -4 24 29 47 41 28 4 -8
12 -13 17 -13 21 2 65 -19 71 -34 4 -12 8 -13 13 -5 5 9 19 5 48 -14 23 -14
46 -26 52 -26 6 0 8 -4 5 -10 -3 -5 0 -10 7 -10 23 1 127 -55 128 -68 0 -9 7
-11 21 -7 27 9 109 -22 109 -41 0 -18 19 -18 39 0 22 19 61 3 61 -25 0 -21 1
-21 18 -6 21 19 48 22 57 7 3 -5 2 -10 -4 -10 -6 0 -17 -13 -25 -29 -17 -32
-46 -48 -56 -31 -5 7 -11 6 -20 -5 -7 -8 -18 -15 -26 -15 -7 0 -16 -6 -20 -12
-4 -7 -4 -10 1 -6 4 4 15 2 23 -5 10 -7 13 -8 9 -1 -5 8 11 11 53 9 38 -2 60
1 60 8 0 6 7 2 15 -9 14 -19 14 -19 15 1 1 11 4 14 7 7 3 -9 13 -5 35 13 16
14 35 25 41 24 8 0 8 -2 0 -6 -7 -2 -13 -9 -13 -14 0 -6 8 -5 20 1 11 6 20 7
20 3 0 -4 5 -1 10 7 8 12 10 12 10 -5 0 -17 2 -17 10 -5 8 12 10 11 10 -7 0
-12 5 -25 10 -28 6 -4 8 -16 4 -28 -6 -22 -6 -22 13 -2 14 14 17 23 9 28 -8 6
-7 10 2 14 10 4 10 8 1 19 -15 19 7 47 33 41 10 -3 16 -1 12 4 -3 5 0 9 6 9 7
0 8 6 2 18 -4 9 -7 27 -7 39 2 22 -14 22 -42 1 -7 -6 -17 -7 -23 -3 -5 3 -10
0 -10 -8 0 -8 -15 -22 -32 -30 -30 -15 -34 -15 -42 1 -5 9 -22 29 -38 43 -15
14 -28 30 -28 35 0 5 -9 10 -20 10 -11 0 -20 -4 -20 -9 0 -5 -11 0 -25 11 -23
18 -91 32 -175 37 -39 1 -90 30 -90 51 0 8 -6 11 -16 7 -10 -4 -22 1 -30 11
-7 10 -18 15 -24 11 -6 -4 -20 1 -30 10 -11 10 -26 15 -35 12 -8 -4 -15 -1
-15 4 0 6 -11 9 -23 7 -20 -4 -23 -1 -21 19 1 13 -2 23 -7 23 -5 0 -9 -11 -9
-25 0 -17 -4 -23 -15 -19 -11 4 -12 11 -5 24 8 14 5 19 -15 22 -13 3 -29 0
-34 -5 -6 -6 -11 -7 -11 -3 0 5 -7 3 -15 -4 -12 -10 -15 -10 -15 4 0 9 5 16
11 16 5 0 7 5 3 11 -4 8 -9 7 -15 -2 -7 -11 -11 -10 -22 5 -10 13 -16 16 -21
7 -4 -6 -12 -9 -17 -6 -5 4 -19 8 -31 10 -13 3 -24 9 -26 14 -2 6 -11 7 -19 4
-13 -5 -15 -2 -10 11 4 11 3 15 -4 11 -6 -4 -16 0 -22 8 -9 11 -18 13 -35 6z"/>
<path d="M1589 2436 c-13 -19 -27 -32 -32 -29 -4 2 -23 -12 -42 -32 -37 -38
-65 -115 -87 -231 -10 -55 -10 -67 3 -75 10 -6 10 -9 2 -9 -7 0 -13 -5 -13
-11 0 -8 4 -8 13 -1 7 6 12 30 11 56 -1 25 2 46 6 46 4 0 11 12 15 27 3 15 10
30 15 33 4 3 31 53 59 113 29 59 53 107 55 107 2 0 3 -18 3 -40 0 -22 2 -42 5
-46 4 -3 4 -12 1 -20 -3 -7 8 -38 23 -69 25 -48 27 -57 14 -66 -12 -8 -10 -9
8 -4 20 6 22 3 22 -27 0 -22 10 -44 30 -68 17 -19 33 -45 36 -57 4 -13 10 -23
15 -23 5 0 9 -7 9 -15 0 -8 5 -15 11 -15 6 0 8 -7 5 -16 -3 -9 -3 -21 1 -27 4
-7 8 -14 9 -17 0 -3 4 -13 9 -24 5 -11 3 -21 -4 -26 -9 -5 -6 -13 12 -27 23
-17 23 -20 9 -31 -15 -11 -14 -12 5 -7 17 5 22 2 20 -14 0 -11 -5 -17 -9 -15
-14 9 -9 -21 7 -42 8 -10 14 -23 15 -29 0 -5 -4 -4 -8 2 -6 10 -12 10 -28 -2
-16 -13 -16 -14 -1 -9 9 3 17 3 17 -1 0 -4 -8 -14 -17 -22 -10 -7 -13 -13 -8
-12 44 6 53 -1 48 -36 -3 -21 0 -35 6 -35 8 0 7 -7 -1 -20 -10 -16 -10 -24 0
-38 26 -36 33 -65 20 -74 -10 -6 -9 -8 4 -8 12 0 16 -5 11 -17 -5 -15 -3 -14
11 2 17 20 17 20 12 -5 -3 -14 -3 -19 0 -12 3 6 12 12 20 12 10 0 13 -7 8 -27
-3 -16 -2 -23 3 -16 6 8 13 8 27 -3 19 -13 18 -14 -9 -14 -35 0 -29 -9 8 -12
15 -1 29 -8 32 -16 3 -8 0 -10 -6 -6 -7 4 -10 1 -7 -7 3 -8 12 -13 22 -11 9 2
16 -3 16 -10 0 -9 3 -9 10 2 8 13 10 12 10 -3 0 -10 12 -22 26 -27 33 -13 34
-13 34 5 0 8 5 15 10 15 6 0 10 -7 10 -15 0 -8 5 -15 10 -15 6 0 10 5 10 10 0
7 19 10 44 9 25 -2 51 3 60 10 13 11 16 11 16 0 1 -10 5 -9 14 4 9 11 17 14
21 8 4 -8 15 -6 34 4 16 8 31 11 35 8 3 -4 6 1 6 9 0 18 27 32 35 18 10 -16
25 -11 25 8 0 13 2 14 9 4 7 -11 13 -10 29 8 17 18 22 19 33 7 11 -12 16 -11
31 7 16 19 17 19 11 2 -11 -31 13 -10 27 23 7 17 25 36 41 43 16 7 29 16 29
20 0 12 57 38 65 30 5 -4 5 -2 1 5 -3 6 2 17 11 23 17 11 17 11 1 6 -10 -3
-18 0 -18 5 0 6 -8 9 -18 7 -10 -3 -23 1 -31 9 -7 8 -18 12 -24 10 -7 -2 -21
8 -31 21 -19 23 -20 24 -28 6 -6 -13 -7 -9 -3 14 4 31 -8 45 -18 20 -3 -8 -6
-6 -6 4 -1 11 -6 15 -16 11 -9 -3 -15 -2 -14 3 4 21 -2 25 -18 13 -15 -12 -16
-12 -11 3 5 11 2 15 -10 13 -9 -2 -20 -4 -24 -4 -4 -1 -5 -9 -2 -18 5 -17 5
-17 -6 0 -6 9 -9 21 -5 26 3 5 1 12 -5 16 -5 3 -10 2 -10 -3 0 -5 -10 -8 -22
-7 -13 1 -29 -4 -36 -12 -7 -7 -19 -13 -25 -13 -9 0 -9 2 -1 8 6 4 11 15 11
25 0 16 -2 16 -26 0 -24 -15 -25 -15 -12 0 8 10 11 20 7 24 -3 4 -13 -2 -20
-13 -8 -10 -18 -16 -22 -12 -4 4 -13 0 -21 -10 -14 -16 -14 -16 -9 1 6 20 2
21 -23 6 -13 -9 -23 -9 -37 -1 -14 8 -15 11 -4 12 8 0 -1 8 -20 19 -19 10 -38
17 -43 14 -4 -2 -6 -1 -5 4 2 5 -15 26 -36 48 -24 23 -41 34 -44 27 -2 -7 -8
-12 -14 -12 -7 0 -6 5 1 14 13 15 4 49 -10 40 -5 -3 -8 -11 -7 -17 2 -7 0 -13
-5 -14 -4 -2 -7 0 -6 3 0 3 -8 12 -18 21 -10 8 -12 11 -4 7 9 -4 12 -3 8 4 -4
5 -17 8 -30 5 -12 -3 -19 -2 -15 2 5 5 -1 14 -12 22 -11 8 -20 20 -20 28 0 8
-12 21 -27 29 -16 8 -24 15 -20 16 4 0 2 10 -5 23 -7 12 -11 26 -10 30 1 5 -7
11 -18 14 -11 3 -18 9 -15 13 3 5 0 14 -7 22 -7 7 -14 22 -16 32 -4 21 -27 48
-35 40 -3 -3 -4 3 -3 13 0 10 -5 17 -11 16 -12 -3 -17 10 -10 21 1 2 -5 12
-15 22 -18 21 -71 114 -64 114 2 0 -2 17 -10 38 -7 20 -17 36 -22 35 -6 -1 -8
14 -5 37 3 22 3 40 1 40 -3 0 -16 -15 -29 -34z"/>
<path d="M3391 2274 c0 -11 3 -14 6 -6 3 7 2 16 -1 19 -3 4 -6 -2 -5 -13z"/>
<path d="M2306 2261 c-6 -10 22 -37 29 -29 8 7 -5 38 -15 38 -5 0 -11 -4 -14
-9z"/>
<path d="M3448 2233 c7 -3 16 -2 19 1 4 3 -2 6 -13 5 -11 0 -14 -3 -6 -6z"/>
<path d="M2457 2211 c-4 -15 3 -21 33 -29 21 -5 43 -6 49 -3 14 9 -17 36 -51
44 -20 5 -27 3 -31 -12z"/>
<path d="M3415 2222 c-16 -11 -67 -93 -62 -99 9 -9 45 21 40 33 -2 7 3 14 13
16 10 2 18 14 20 31 3 30 3 30 -11 19z"/>
<path d="M2568 2169 c-11 -7 26 -12 58 -8 4 0 10 -3 13 -8 10 -15 90 -53 109
-52 11 0 6 6 -13 14 -16 7 -42 24 -56 37 -26 24 -85 33 -111 17z"/>
<path d="M2775 2110 c-3 -5 -1 -10 4 -10 6 0 11 5 11 10 0 6 -2 10 -4 10 -3 0
-8 -4 -11 -10z"/>
<path d="M2426 2095 c4 -8 8 -15 10 -15 2 0 4 7 4 15 0 8 -4 15 -10 15 -5 0
-7 -7 -4 -15z"/>
<path d="M1432 1990 c0 -19 2 -27 5 -17 2 9 2 25 0 35 -3 9 -5 1 -5 -18z"/>
<path d="M2487 2014 c-4 -4 5 -18 19 -31 21 -19 24 -26 14 -38 -14 -17 -35
-21 -25 -5 3 6 -1 10 -9 10 -9 0 -16 -7 -16 -15 0 -8 5 -15 10 -15 6 0 8 -11
4 -27 -4 -16 -3 -25 1 -21 5 5 15 -1 23 -13 11 -15 23 -20 51 -18 20 2 42 0
49 -5 8 -5 10 -2 5 11 -6 17 -5 17 14 1 11 -10 24 -18 29 -18 5 0 3 4 -3 8 -8
5 1 12 26 18 34 9 38 9 34 -5 -3 -12 -1 -11 11 3 8 10 13 22 11 27 -3 4 5 5
17 2 22 -4 22 -4 -2 12 l-25 16 25 -7 c14 -4 30 -9 37 -11 17 -6 10 57 -8 68
-8 5 -30 6 -49 2 -19 -3 -39 -6 -45 -5 -68 7 -90 13 -106 31 -11 12 -28 21
-39 21 -10 0 -25 2 -32 5 -8 3 -17 3 -21 -1z m230 -106 c-3 -8 -6 -5 -6 6 -1
11 2 17 5 13 3 -3 4 -12 1 -19z m-79 -13 c-3 -3 -9 2 -12 12 -6 14 -5 15 5 6
7 -7 10 -15 7 -18z"/>
<path d="M2808 1959 c-25 -16 12 -26 50 -14 12 4 22 11 22 14 0 10 -56 10 -72
0z"/>
<path d="M2480 1849 c0 -5 5 -7 10 -4 6 3 10 8 10 11 0 2 -4 4 -10 4 -5 0 -10
-5 -10 -11z"/>
<path d="M2535 1820 c-8 -13 15 -24 27 -12 6 6 4 11 -6 15 -8 3 -18 2 -21 -3z"/>
<path d="M2742 1490 c-18 -39 -35 -70 -38 -70 -3 0 -2 5 2 12 4 7 3 8 -5 4 -6
-4 -9 -11 -6 -16 7 -11 -5 -41 -15 -35 -6 4 -19 -26 -19 -45 0 -3 -7 -21 -15
-41 -8 -20 -18 -52 -21 -70 -3 -18 -11 -37 -18 -41 -6 -4 -8 -10 -4 -14 4 -4
1 -14 -6 -22 -10 -13 -9 -14 3 -10 25 8 204 418 182 418 -4 0 -22 -32 -40 -70z"/>
<path d="M2585 1401 c-3 -5 -1 -12 5 -16 5 -3 10 1 10 9 0 18 -6 21 -15 7z"/>
<path d="M2649 1402 c-14 -6 -15 -9 -3 -20 12 -10 14 -10 14 2 0 8 8 17 18 19
11 3 12 5 2 5 -8 0 -22 -2 -31 -6z"/>
<path d="M2395 1339 c-4 -6 -5 -12 -2 -15 2 -3 7 2 10 11 7 17 1 20 -8 4z"/>
<path d="M2585 1120 c-3 -5 -1 -10 4 -10 6 0 11 5 11 10 0 6 -2 10 -4 10 -3 0
-8 -4 -11 -10z"/>
</g>
</svg>
